<svg width="149" height="28" viewBox="0 0 149 28" fill="none" xmlns="http://www.w3.org/2000/svg">
<path d="M13.4226 4.51199C13.8629 3.62019 15.1345 3.62019 15.5747 4.51199L17.8248 9.07027C17.9994 9.42409 18.3368 9.66944 18.7273 9.72651L23.7608 10.4622C24.7447 10.606 25.1369 11.8155 24.4246 12.5093L20.7842 16.055C20.5011 16.3307 20.3719 16.728 20.4387 17.1175L21.2976 22.1252C21.4658 23.1055 20.4367 23.8531 19.5563 23.3901L15.0572 21.0241C14.7076 20.8402 14.2898 20.8402 13.9402 21.0241L9.44106 23.3901C8.5607 23.8531 7.53164 23.1055 7.69979 22.1252L8.55867 17.1175C8.62546 16.728 8.49627 16.3307 8.21322 16.055L4.57285 12.5093C3.86054 11.8155 4.25267 10.606 5.23657 10.4622L10.2701 9.72651C10.6606 9.66944 10.998 9.42409 11.1726 9.07027L13.4226 4.51199Z" fill="#FFAA00"/>
<path d="M43.4226 4.51199C43.8629 3.62019 45.1345 3.62019 45.5747 4.51199L47.8248 9.07027C47.9994 9.42409 48.3368 9.66944 48.7273 9.72651L53.7608 10.4622C54.7447 10.606 55.1369 11.8155 54.4246 12.5093L50.7842 16.055C50.5011 16.3307 50.3719 16.728 50.4387 17.1175L51.2976 22.1252C51.4658 23.1055 50.4367 23.8531 49.5563 23.3901L45.0572 21.0241C44.7076 20.8402 44.2898 20.8402 43.9402 21.0241L39.4411 23.3901C38.5607 23.8531 37.5316 23.1055 37.6998 22.1252L38.5587 17.1175C38.6255 16.728 38.4963 16.3307 38.2132 16.055L34.5728 12.5093C33.8605 11.8155 34.2527 10.606 35.2366 10.4622L40.2701 9.72651C40.6606 9.66944 40.998 9.42409 41.1726 9.07027L43.4226 4.51199Z" fill="#FFAA00"/>
<path d="M73.4226 4.51199C73.8629 3.62019 75.1345 3.62019 75.5747 4.51199L77.8248 9.07027C77.9994 9.42409 78.3368 9.66944 78.7273 9.72651L83.7608 10.4622C84.7447 10.606 85.1369 11.8155 84.4246 12.5093L80.7842 16.055C80.5011 16.3307 80.3719 16.728 80.4387 17.1175L81.2976 22.1252C81.4658 23.1055 80.4367 23.8531 79.5563 23.3901L75.0572 21.0241C74.7076 20.8402 74.2898 20.8402 73.9402 21.0241L69.4411 23.3901C68.5607 23.8531 67.5316 23.1055 67.6998 22.1252L68.5587 17.1175C68.6255 16.728 68.4963 16.3307 68.2132 16.055L64.5728 12.5093C63.8605 11.8155 64.2527 10.606 65.2366 10.4622L70.2701 9.72651C70.6606 9.66944 70.998 9.42409 71.1726 9.07027L73.4226 4.51199Z" fill="#FFAA00"/>
<path d="M103.423 4.51199C103.863 3.62019 105.135 3.62019 105.575 4.51199L107.825 9.07027C107.999 9.42409 108.337 9.66944 108.727 9.72651L113.761 10.4622C114.745 10.606 115.137 11.8155 114.425 12.5093L110.784 16.055C110.501 16.3307 110.372 16.728 110.439 17.1175L111.298 22.1252C111.466 23.1055 110.437 23.8531 109.556 23.3901L105.057 21.0241C104.708 20.8402 104.29 20.8402 103.94 21.0241L99.4411 23.3901C98.5607 23.8531 97.5316 23.1055 97.6998 22.1252L98.5587 17.1175C98.6255 16.728 98.4963 16.3307 98.2132 16.055L94.5728 12.5093C93.8605 11.8155 94.2527 10.606 95.2366 10.4622L100.27 9.72651C100.661 9.66944 100.998 9.42409 101.173 9.07027L103.423 4.51199Z" fill="#FFAA00"/>
<path d="M133.423 4.51199C133.863 3.62019 135.135 3.62019 135.575 4.51199L137.825 9.07027C137.999 9.42409 138.337 9.66944 138.727 9.72651L143.761 10.4622C144.745 10.606 145.137 11.8155 144.425 12.5093L140.784 16.055C140.501 16.3307 140.372 16.728 140.439 17.1175L141.298 22.1252C141.466 23.1055 140.437 23.8531 139.556 23.3901L135.057 21.0241C134.708 20.8402 134.29 20.8402 133.94 21.0241L129.441 23.3901C128.561 23.8531 127.532 23.1055 127.7 22.1252L128.559 17.1175C128.625 16.728 128.496 16.3307 128.213 16.055L124.573 12.5093C123.861 11.8155 124.253 10.606 125.237 10.4622L130.27 9.72651C130.661 9.66944 130.998 9.42409 131.173 9.07027L133.423 4.51199Z" fill="#FFAA00"/>
</svg>
